HIERARCHY
ROOT joint_Root
{
	OFFSET 0.0 0.0 0.0
	CHANNELS 6 Xposition Yposition Zposition Zrotation Xrotation Yrotation 
	JOINT Hips
	{
		OFFSET -17.1583 93.1646 452.98
		CHANNELS 6 Xposition Yposition Zposition Zrotation Xrotation Yrotation 
		JOINT Spine
		{
			OFFSET 15.7357 0.0 0.0
			CHANNELS 6 Xposition Yposition Zposition Zrotation Xrotation Yrotation 
			JOINT Chest
			{
				OFFSET 8.98455 -0.406207 0.0
				CHANNELS 6 Xposition Yposition Zposition Zrotation Xrotation Yrotation 
				JOINT Neck
				{
					OFFSET 16.3773 0.0 0.0
					CHANNELS 6 Xposition Yposition Zposition Zrotation Xrotation Yrotation 
					JOINT Head
					{
						OFFSET 6.45672 0.0 0.0
						CHANNELS 6 Xposition Yposition Zposition Zrotation Xrotation Yrotation 
						End Site
						{
							OFFSET 0.0 0.0 0.0
						}
					}
				}
				JOINT Shoulder_L
				{
					OFFSET 12.9942 -0.242716 4.98039
					CHANNELS 6 Xposition Yposition Zposition Zrotation Xrotation Yrotation 
					JOINT UpperArm_L
					{
						OFFSET 5.34809 0.0 0.0
						CHANNELS 6 Xposition Yposition Zposition Zrotation Xrotation Yrotation 
						JOINT LowerArm_L
						{
							OFFSET 24.3286 1.87007e-05 0.0
							CHANNELS 6 Xposition Yposition Zposition Zrotation Xrotation Yrotation 
							JOINT Hand_L
							{
								OFFSET 22.2916 0.0 0.0
								CHANNELS 6 Xposition Yposition Zposition Zrotation Xrotation Yrotation 
								End Site
								{
									OFFSET 0.0 0.0 0.0
								}
							}
						}
					}
				}
				JOINT Shoulder_R
				{
					OFFSET 12.9945 -0.242716 -4.98039
					CHANNELS 6 Xposition Yposition Zposition Zrotation Xrotation Yrotation 
					JOINT UpperArm_R
					{
						OFFSET -5.34813 0.0 0.0
						CHANNELS 6 Xposition Yposition Zposition Zrotation Xrotation Yrotation 
						JOINT LowerArm_R
						{
							OFFSET -24.3289 0.000322201 0.0
							CHANNELS 6 Xposition Yposition Zposition Zrotation Xrotation Yrotation 
							JOINT Hand_R
							{
								OFFSET -22.2915 -0.000108084 0.0
								CHANNELS 6 Xposition Yposition Zposition Zrotation Xrotation Yrotation 
								End Site
								{
									OFFSET 0.0 0.0 0.0
								}
							}
						}
					}
				}
			}
		}
		JOINT UpperLeg_L
		{
			OFFSET -2.19248 -6.46944 0.0
			CHANNELS 6 Xposition Yposition Zposition Zrotation Xrotation Yrotation 
			JOINT LowerLeg_L
			{
				OFFSET 39.0811 0.0 -1.23785e-05
				CHANNELS 6 Xposition Yposition Zposition Zrotation Xrotation Yrotation 
				JOINT Foot_L
				{
					OFFSET 40.9854 0.0 -1.26872e-05
					CHANNELS 6 Xposition Yposition Zposition Zrotation Xrotation Yrotation 
					JOINT Toes_L
					{
						OFFSET 11.7543 0.0 0.0
						CHANNELS 6 Xposition Yposition Zposition Zrotation Xrotation Yrotation 
						End Site
						{
							OFFSET 0.0 0.0 0.0
						}
					}
				}
			}
		}
		JOINT UpperLeg_R
		{
			OFFSET -2.19251 6.46944 0.0
			CHANNELS 6 Xposition Yposition Zposition Zrotation Xrotation Yrotation 
			JOINT LowerLeg_R
			{
				OFFSET -39.0811 -0.00228153 -0.0401928
				CHANNELS 6 Xposition Yposition Zposition Zrotation Xrotation Yrotation 
				JOINT Foot_R
				{
					OFFSET -40.9854 0.0 0.0
					CHANNELS 6 Xposition Yposition Zposition Zrotation Xrotation Yrotation 
					JOINT Toes_R
					{
						OFFSET -11.7543 0.0 0.0
						CHANNELS 6 Xposition Yposition Zposition Zrotation Xrotation Yrotation 
						End Site
						{
							OFFSET 0.0 0.0 0.0
						}
					}
				}
			}
		}
	}
}
MOTION
Frames:	9
Frame Time:	0.0333333
0.000000 0.000000 0.000000 0.000000 0.000000 -0.000000 -6.585170 92.207500 8.756970 -93.796600 3.722420 169.120000 15.735700 0.000005 -0.000001 131.131000 85.078400 -132.729000 8.984550 -0.406207 -0.000000 -0.255119 6.584940 -3.181730 16.377300 -0.000001 -0.000001 -1.976620 1.104680 0.363134 6.456720 -0.000001 -0.000000 -8.308580 -1.267070 -0.776569 12.994200 -0.242716 4.980390 -92.006400 5.411320 -69.621200 5.348090 -0.000007 -0.000001 -48.230200 -25.719500 29.211700 24.328600 0.000019 0.000005 43.319200 22.734500 -67.714700 22.291600 -0.000001 0.000005 42.800500 3.870150 26.041600 12.994500 -0.242716 -4.980390 89.125400 2.783290 -72.547800 -5.348130 -0.000001 -0.000004 -67.403100 7.573720 0.323715 -24.328900 0.000322 -0.000009 2.256440 0.270911 -83.148100 -22.291500 -0.000108 -0.000004 55.547900 5.516370 -7.208150 -2.192480 -6.469440 -0.000000 175.438000 3.010980 -47.839400 39.081100 -0.000007 -0.000012 -0.066490 0.037269 60.731500 40.985400 -0.000006 -0.000013 -5.088810 -7.310450 -70.618200 11.754300 -0.000000 0.000003 0.002482 0.079948 -13.334400 -2.192510 6.469440 -0.000001 177.412000 6.750200 -176.728000 -39.081100 -0.002282 -0.040193 0.007475 -0.009725 23.160100 -40.985400 0.000008 0.000006 3.010310 -1.545260 -52.449700 -11.754300 -0.000006 -0.000006 -0.047423 -0.288448 -28.445500
0.000000 0.000000 0.000000 0.000000 0.000000 -0.000000 -6.198470 93.595200 -0.901827 -91.387600 2.381760 169.855000 15.735700 0.000005 -0.000001 133.820000 84.742000 -134.581000 8.984550 -0.406207 -0.000000 -0.124603 7.331920 -1.516180 16.377300 -0.000001 -0.000001 -1.920560 0.527689 0.501769 6.456720 -0.000001 -0.000000 -8.476230 -2.512270 -1.284000 12.994200 -0.242716 4.980390 -92.036500 5.396870 -69.290100 5.348090 -0.000007 -0.000001 -45.124100 -26.592600 30.707200 24.328600 0.000019 0.000005 43.507400 23.853100 -66.924500 22.291600 -0.000001 0.000005 42.647600 3.871880 26.017900 12.994500 -0.242716 -4.980390 89.288400 2.293640 -72.759400 -5.348130 -0.000001 -0.000004 -66.910500 7.698340 -0.663159 -24.328900 0.000322 -0.000009 2.515350 0.134938 -86.941400 -22.291500 -0.000108 -0.000004 55.764900 5.519320 -7.334250 -2.192480 -6.469440 -0.000000 179.871000 4.500300 -42.761300 39.081100 -0.000007 -0.000012 -0.031155 0.036018 40.860900 40.985400 -0.000006 -0.000013 -7.263740 0.954411 -73.587100 11.754300 -0.000000 0.000003 0.002478 0.078714 -13.384400 -2.192510 6.469440 -0.000001 179.342000 10.445900 -172.518000 -39.081100 -0.002282 -0.040193 0.030103 -0.068557 21.340200 -40.985400 0.000008 0.000006 5.965100 -1.062660 -36.372500 -11.754300 -0.000006 -0.000006 0.002145 0.052664 -14.437000
0.000000 0.000000 0.000000 0.000000 0.000000 -0.000000 -5.729480 93.682700 -10.816100 -88.598000 1.913170 171.536000 15.735700 0.000005 -0.000001 133.226000 84.350800 -132.984000 8.984550 -0.406207 -0.000000 0.459072 7.720110 0.452024 16.377300 -0.000001 -0.000001 -2.100050 0.371520 0.735316 6.456720 -0.000001 -0.000000 -8.259770 -2.649670 -1.749330 12.994200 -0.242716 4.980390 -92.215000 5.871620 -69.289200 5.348090 -0.000007 -0.000001 -43.928300 -27.251300 31.039300 24.328600 0.000019 0.000005 43.541900 25.653300 -65.508800 22.291600 -0.000001 0.000005 42.785500 3.851350 26.299800 12.994500 -0.242716 -4.980390 89.346600 2.161810 -73.178000 -5.348130 -0.000001 -0.000004 -67.632900 7.222170 -0.085562 -24.328900 0.000322 -0.000009 2.375880 0.140054 -86.636800 -22.291500 -0.000108 -0.000004 55.199600 5.523450 -7.509970 -2.192480 -6.469440 -0.000000 -175.904000 4.753140 -36.302000 39.081100 -0.000007 -0.000012 -0.029436 0.066354 23.922900 40.985400 -0.000006 -0.000013 -8.026350 7.315690 -76.223500 11.754300 -0.000000 0.000003 0.002475 0.077951 -13.415400 -2.192510 6.469440 -0.000001 -178.419000 11.099000 -170.775000 -39.081100 -0.002282 -0.040193 0.066506 -0.118700 28.032400 -40.985400 0.000008 0.000006 5.443040 -4.490590 -32.172100 -11.754300 -0.000006 -0.000006 -0.001849 0.194482 -8.683200
0.000000 0.000000 0.000000 0.000000 0.000000 -0.000000 -5.599110 92.889500 -20.793000 -87.676600 1.957750 172.873000 15.735700 0.000005 -0.000001 128.839000 84.122400 -128.323000 8.984550 -0.406207 -0.000000 1.370180 7.339620 0.943534 16.377300 -0.000001 -0.000001 -2.803360 0.552580 0.911036 6.456720 -0.000001 -0.000000 -8.127390 -2.066910 -1.325130 12.994200 -0.242716 4.980390 -92.334900 6.371920 -69.826700 5.348090 -0.000007 -0.000001 -46.112000 -27.997200 28.603200 24.328600 0.000019 0.000005 40.816500 27.513000 -61.858600 22.291600 -0.000001 0.000005 42.786600 3.854710 26.253300 12.994500 -0.242716 -4.980390 89.345200 2.238840 -73.691600 -5.348130 -0.000001 -0.000004 -69.557100 7.038520 1.604050 -24.328900 0.000322 -0.000009 1.669750 0.252001 -81.414000 -22.291500 -0.000108 -0.000004 56.260100 5.524850 -7.570400 -2.192480 -6.469440 -0.000000 -174.555000 5.096210 -32.335500 39.081100 -0.000007 -0.000012 -0.021575 0.068489 17.484800 40.985400 -0.000006 -0.000013 -6.811980 6.323760 -78.569400 11.754300 -0.000000 0.000003 0.002467 0.076333 -13.481000 -2.192510 6.469440 -0.000001 -176.400000 7.775350 -171.274000 -39.081100 -0.002282 -0.040193 0.058588 -0.070772 38.005800 -40.985400 0.000008 0.000006 6.445060 -8.262510 -33.823900 -11.754300 -0.000006 -0.000006 -0.001903 0.195158 -8.655700
0.000000 0.000000 0.000000 0.000000 0.000000 -0.000000 -5.683110 91.101000 -30.950400 -87.955800 1.218590 174.939000 15.735700 0.000005 -0.000001 117.326000 83.852900 -116.866000 8.984550 -0.406207 -0.000000 3.147060 5.619130 0.764394 16.377300 -0.000001 -0.000001 -3.230650 0.843919 0.912280 6.456720 -0.000001 -0.000000 -8.959500 -0.900017 -0.911258 12.994200 -0.242716 4.980390 -92.434700 6.977650 -70.709600 5.348090 -0.000007 -0.000001 -51.133400 -26.987500 23.428900 24.328600 0.000019 0.000005 36.500500 28.442600 -57.232200 22.291600 -0.000001 0.000005 41.639300 3.950120 24.929000 12.994500 -0.242716 -4.980390 89.235700 2.588800 -73.546600 -5.348130 -0.000001 -0.000004 -71.062700 7.724080 3.708550 -24.328900 0.000322 -0.000009 0.511777 0.166147 -72.048700 -22.291500 -0.000108 -0.000004 55.654400 5.541970 -8.337190 -2.192480 -6.469440 -0.000000 -176.309000 2.593140 -29.068600 39.081100 -0.000007 -0.000012 -0.032049 0.084646 20.737900 40.985400 -0.000006 -0.000013 -7.469790 8.543100 -80.033300 11.754300 -0.000000 0.000003 0.002422 0.070238 -13.728100 -2.192510 6.469440 -0.000001 -176.967000 7.815800 -173.704000 -39.081100 -0.002282 -0.040193 0.079548 -0.062869 50.513300 -40.985400 0.000008 0.000006 5.603910 -12.519400 -35.606600 -11.754300 -0.000006 -0.000006 -0.001735 0.193020 -8.742620
0.000000 0.000000 0.000000 0.000000 0.000000 -0.000000 -6.221670 88.600200 -40.182000 -90.117900 0.208784 174.729000 15.735700 0.000005 -0.000001 103.593000 84.280600 -103.769000 8.984550 -0.406207 -0.000000 3.359660 2.692090 -0.429448 16.377300 -0.000001 -0.000001 -2.856440 1.516780 0.939224 6.456720 -0.000001 -0.000000 -10.571400 0.928338 -1.204810 12.994200 -0.242716 4.980390 -93.041400 8.902370 -71.050400 5.348090 -0.000007 -0.000001 -55.520900 -24.132700 16.998900 24.328600 0.000019 0.000005 35.355600 28.597000 -55.995300 22.291600 -0.000001 0.000005 41.380200 3.989690 24.372700 12.994500 -0.242716 -4.980390 88.828600 3.850690 -73.066100 -5.348130 -0.000001 -0.000004 -70.584400 7.893580 5.998160 -24.328900 0.000322 -0.000009 1.367770 0.825106 -59.007200 -22.291500 -0.000108 -0.000004 56.131800 5.590800 -10.804300 -2.192480 -6.469440 -0.000000 178.610000 1.328620 -35.691300 39.081100 -0.000007 -0.000012 0.589026 -0.721957 39.211700 40.985400 -0.000006 -0.000013 2.340580 7.046310 -71.879100 11.754300 -0.000000 0.000003 0.002486 0.081710 -13.263000 -2.192510 6.469440 -0.000001 179.684000 10.138500 177.424000 -39.081100 -0.002282 -0.040193 0.151522 -0.063383 66.868500 -40.985400 0.000008 0.000006 4.716760 -17.271100 -41.181300 -11.754300 -0.000006 -0.000006 -0.002254 0.199520 -8.478280
0.000000 0.000000 0.000000 0.000000 0.000000 -0.000000 -6.692240 86.097400 -49.222600 -91.527800 -0.869718 176.762000 15.735700 0.000005 -0.000001 88.515700 83.514000 -89.057200 8.984550 -0.406207 -0.000000 5.200320 -0.323193 -1.067050 16.377300 -0.000001 -0.000001 -3.629240 1.945990 0.765521 6.456720 -0.000001 -0.000000 -11.120000 2.626380 -0.788171 12.994200 -0.242716 4.980390 -93.765300 11.393300 -71.574000 5.348090 -0.000007 -0.000001 -59.466500 -22.160800 8.995120 24.328600 0.000019 0.000005 36.868000 27.221200 -58.618800 22.291600 -0.000001 0.000005 43.816700 3.850550 26.306200 12.994500 -0.242716 -4.980390 88.483300 5.009650 -73.132500 -5.348130 -0.000001 -0.000004 -69.338200 4.663840 8.252570 -24.328900 0.000322 -0.000009 1.285520 1.376250 -43.022600 -22.291500 -0.000108 -0.000004 56.182100 5.609740 -11.943900 -2.192480 -6.469440 -0.000000 176.445000 1.210180 -34.018000 39.081100 -0.000007 -0.000012 0.848793 -0.693734 50.742800 40.985400 -0.000006 -0.000013 5.561720 8.389230 -76.338200 11.754300 -0.000000 0.000003 0.000227 0.163720 -9.936590 -2.192510 6.469440 -0.000001 177.846000 10.899700 168.417000 -39.081100 -0.002282 -0.040193 0.162146 -0.022461 81.979600 -40.985400 0.000008 0.000006 3.055400 -18.302100 -45.862300 -11.754300 -0.000006 -0.000006 -0.001893 0.195035 -8.660720
0.000000 0.000000 0.000000 0.000000 0.000000 -0.000000 -6.944290 84.622800 -58.112600 -92.384500 -2.281020 178.627000 15.735700 0.000005 -0.000001 80.659400 82.272400 -81.320700 8.984550 -0.406207 -0.000000 7.475540 -2.497160 -1.158280 16.377300 -0.000001 -0.000001 -4.983570 1.767090 0.271793 6.456720 -0.000001 -0.000000 -11.493000 3.311030 -0.357008 12.994200 -0.242716 4.980390 -93.329500 11.030100 -73.087800 5.348090 -0.000007 -0.000001 -66.572000 -19.293700 -0.363910 24.328600 0.000019 0.000005 40.526300 24.177500 -64.399100 22.291600 -0.000001 0.000005 43.506700 3.856390 26.229800 12.994500 -0.242716 -4.980390 88.307100 5.341600 -72.387100 -5.348130 -0.000001 -0.000004 -67.862100 0.727810 11.174900 -24.328900 0.000322 -0.000009 -0.268263 -0.464192 -29.976100 -22.291500 -0.000108 -0.000004 56.215300 5.609540 -11.935000 -2.192480 -6.469440 -0.000000 175.261000 2.744580 -27.694300 39.081100 -0.000007 -0.000012 1.092730 -0.746007 55.682500 40.985400 -0.000006 -0.000013 6.940920 7.347680 -84.879700 11.754300 -0.000000 0.000003 -0.001419 0.188818 -8.916940 -2.192510 6.469440 -0.000001 177.905000 10.256400 158.771000 -39.081100 -0.002282 -0.040193 0.061341 0.001828 91.888700 -40.985400 0.000008 0.000006 2.768890 -13.396600 -50.118400 -11.754300 -0.000006 -0.000006 -0.001747 0.193167 -8.736670
0.000000 0.000000 0.000000 0.000000 0.000000 -0.000000 -6.628700 85.172700 -67.250900 -91.365300 -1.930560 179.324000 15.735700 0.000005 -0.000001 75.808000 81.816500 -75.955700 8.984550 -0.406207 -0.000000 8.111040 -3.995560 -0.011694 16.377300 -0.000001 -0.000001 -4.892720 2.640600 -0.713155 6.456720 -0.000001 -0.000000 -11.089700 4.459330 -0.496117 12.994200 -0.242716 4.980390 -92.812000 9.738070 -73.807000 5.348090 -0.000007 -0.000001 -70.100600 -14.284900 -5.503480 24.328600 0.000019 0.000005 47.372900 19.607000 -72.833600 22.291600 -0.000001 0.000005 42.722300 3.816010 26.782600 12.994500 -0.242716 -4.980390 88.356000 5.094940 -72.089400 -5.348130 -0.000001 -0.000004 -65.732000 -2.748720 16.509700 -24.328900 0.000322 -0.000009 0.624349 1.356800 -24.769100 -22.291500 -0.000108 -0.000004 56.303500 5.603540 -11.556700 -2.192480 -6.469440 -0.000000 177.007000 1.707810 -17.909700 39.081100 -0.000007 -0.000012 0.796583 -0.626656 51.810700 40.985400 -0.000006 -0.000013 5.468750 9.107970 -89.359200 11.754300 -0.000000 0.000003 -0.000244 0.171637 -9.615070 -2.192510 6.469440 -0.000001 -179.395000 7.306120 150.054000 -39.081100 -0.002282 -0.040193 -0.057546 -0.003826 93.515500 -40.985400 0.000008 0.000006 0.924901 -11.295600 -56.392500 -11.754300 -0.000006 -0.000006 -0.002335 0.200503 -8.438300
